<?xml version="1.0" encoding="UTF-8" standalone="no"?>
<!-- Created with Inkscape (http://www.inkscape.org/) -->

<svg
   xmlns:dc="http://purl.org/dc/elements/1.1/"
   xmlns:cc="http://creativecommons.org/ns#"
   xmlns:rdf="http://www.w3.org/1999/02/22-rdf-syntax-ns#"
   xmlns:svg="http://www.w3.org/2000/svg"
   xmlns="http://www.w3.org/2000/svg"
   xmlns:sodipodi="http://sodipodi.sourceforge.net/DTD/sodipodi-0.dtd"
   xmlns:inkscape="http://www.inkscape.org/namespaces/inkscape"
   width="27.560764mm"
   height="9.3706589mm"
   viewBox="0 0 97.656252 33.203122"
   id="svg2"
   version="1.1"
   inkscape:version="0.91 r13725"
   sodipodi:docname="mcpt.svg">
  <defs
     id="defs4" />
  <sodipodi:namedview
     id="base"
     pagecolor="#ffffff"
     bordercolor="#666666"
     borderopacity="1.0"
     inkscape:pageopacity="0.0"
     inkscape:pageshadow="2"
     inkscape:zoom="5.6"
     inkscape:cx="35.020252"
     inkscape:cy="7.286726"
     inkscape:document-units="px"
     inkscape:current-layer="text4708"
     showgrid="false"
     inkscape:window-width="1680"
     inkscape:window-height="987"
     inkscape:window-x="-8"
     inkscape:window-y="-8"
     inkscape:window-maximized="1"
     fit-margin-top="0"
     fit-margin-left="0"
     fit-margin-right="0"
     fit-margin-bottom="0" />
  <metadata
     id="metadata7">
    <rdf:RDF>
      <cc:Work
         rdf:about="">
        <dc:format>image/svg+xml</dc:format>
        <dc:type
           rdf:resource="http://purl.org/dc/dcmitype/StillImage" />
        <dc:title></dc:title>
      </cc:Work>
    </rdf:RDF>
  </metadata>
  <g
     inkscape:label="Layer 1"
     inkscape:groupmode="layer"
     id="layer1"
     transform="translate(-91.923059,-62.781324)">
    <g
       style="font-style:normal;font-weight:normal;font-size:40px;line-height:125%;font-family:sans-serif;letter-spacing:0px;word-spacing:0px;fill:#000000;fill-opacity:1;stroke:none;stroke-width:1px;stroke-linecap:butt;stroke-linejoin:miter;stroke-opacity:1"
       id="text4708"
       transform="translate(5.555839,0.50507627)">
      <path
         style="font-style:normal;font-variant:normal;font-weight:normal;font-stretch:normal;font-family:Akashi;-inkscape-font-specification:Akashi;fill:#ffffff"
         d="m 174.25785,62.276248 0,21.484372 c 0,2.60417 1.30208,3.90625 3.90624,3.90625 l 5.85938,0 0,-5.85938 -3.90625,0 0,-9.785148 1.95313,0 1.95312,-5.839844 -3.90625,0 0,-3.90625 -5.85937,0 z m -83.98438,3.90625 c -2.60416,0 -3.90625,1.302083 -3.90625,3.90625 l 0,17.578122 5.85937,0 0,-15.624997 7.83204,0 0,15.624997 5.85937,0 0,-15.624997 7.77344,0 0.0195,15.624997 5.85938,0 0,-17.578122 c 0,-2.604167 -1.30209,-3.90625 -3.90626,-3.90625 l -25.39062,0 z m 37.10938,0 c -2.60417,0 -3.90626,1.302083 -3.90626,3.90625 l 0,13.671872 c 0,2.60417 1.30209,3.90625 3.90626,3.90625 l 15.625,0 0,-5.85938 -13.67188,0 0,-9.765617 11.71875,0 1.95313,-5.859375 -15.625,0 z m 23.4375,0 c -2.60417,0 -3.90626,1.302083 -3.90626,3.90625 l 0,25.390622 5.85938,0 0,-23.437497 11.71875,0 0,9.765617 -7.8125,0 -1.95313,5.85938 11.71876,0 c 2.60416,0 3.90624,-1.30208 3.90624,-3.90625 l 0,-13.671872 c 0,-2.604167 -1.30208,-3.90625 -3.90624,-3.90625 l -15.625,0 z"
         id="path4713"
         inkscape:connector-curvature="0" />
    </g>
  </g>
</svg>
