<?xml version="1.0" encoding="UTF-8" standalone="no"?>
<!-- Created with Inkscape (http://www.inkscape.org/) -->

<svg
   xmlns:dc="http://purl.org/dc/elements/1.1/"
   xmlns:cc="http://creativecommons.org/ns#"
   xmlns:rdf="http://www.w3.org/1999/02/22-rdf-syntax-ns#"
   xmlns:svg="http://www.w3.org/2000/svg"
   xmlns="http://www.w3.org/2000/svg"
   xmlns:sodipodi="http://sodipodi.sourceforge.net/DTD/sodipodi-0.dtd"
   xmlns:inkscape="http://www.inkscape.org/namespaces/inkscape"
   width="512"
   height="512"
   viewBox="0 0 512.00001 512.00001"
   id="svg2"
   version="1.1"
   inkscape:version="0.91 r13725"
   sodipodi:docname="silhouette.svg">
  <defs
     id="defs4" />
  <sodipodi:namedview
     id="base"
     pagecolor="#ffffff"
     bordercolor="#666666"
     borderopacity="1.0"
     inkscape:pageopacity="0.0"
     inkscape:pageshadow="2"
     inkscape:zoom="1"
     inkscape:cx="218.14425"
     inkscape:cy="192.09047"
     inkscape:document-units="px"
     inkscape:current-layer="layer1"
     showgrid="false"
     units="px"
     inkscape:window-width="1680"
     inkscape:window-height="987"
     inkscape:window-x="-8"
     inkscape:window-y="-8"
     inkscape:window-maximized="1" />
  <metadata
     id="metadata7">
    <rdf:RDF>
      <cc:Work
         rdf:about="">
        <dc:format>image/svg+xml</dc:format>
        <dc:type
           rdf:resource="http://purl.org/dc/dcmitype/StillImage" />
        <dc:title></dc:title>
      </cc:Work>
    </rdf:RDF>
  </metadata>
  <g
     inkscape:label="Layer 1"
     inkscape:groupmode="layer"
     id="layer1"
     transform="translate(0,-540.36214)">
    <path
       style="fill:#ffffff;fill-opacity:1"
       d="m 54.393026,1050.9119 c -26.223824,-7.2662 -45.910127,-27.182 -52.6231149,-53.23671 -2.31589287,-8.98858 -2.31589287,-30.81943 0,-39.808 4.148258,-16.10037 14.1712629,-31.33074 26.5957389,-40.41324 l 7.905474,-5.77904 0,-115.469 0,-115.46896 -7.905474,-5.77905 C 15.759168,665.74233 5.8526494,650.55653 1.6420302,633.99301 -1.2420974,622.64753 -0.17342049,598.50585 3.6661983,588.26658 11.778308,566.63362 26.591905,551.766 48.456345,543.3131 c 7.115956,-2.75106 8.907487,-2.95197 26.323819,-2.95197 17.416343,0 19.207886,0.20091 26.323816,2.95197 21.8357,8.44178 36.52118,23.16342 44.84314,44.95348 2.63468,6.89849 2.94914,9.42102 3.20044,25.6726 l 0.27869,18.02241 44.0487,44.95801 44.04871,44.95806 18.30404,0 18.30404,0 44.26448,-44.35973 44.26448,-44.35969 0.22314,-18.62075 c 0.2038,-17.00583 0.47753,-19.28422 3.15617,-26.27091 8.36706,-21.82391 23.02481,-36.51404 44.85444,-44.95348 7.11593,-2.75106 8.90745,-2.95197 26.32382,-2.95197 17.41632,0 19.20785,0.20091 26.3238,2.95197 21.86443,8.4529 36.67805,23.32052 44.79015,44.95348 3.83961,10.23927 4.90831,34.38095 2.02418,45.72643 -4.21063,16.56352 -14.11715,31.74931 -26.72363,40.96489 l -7.90548,5.77905 0,115.46896 0,115.469 7.90548,5.77904 c 12.60648,9.21556 22.513,24.40136 26.72363,40.96491 2.88413,11.34548 1.81543,35.4871 -2.02418,45.72644 -8.1121,21.6329 -22.92572,36.5006 -44.79015,44.9534 -7.11595,2.7511 -8.90748,2.9519 -26.3238,2.9519 -17.41637,0 -19.20789,-0.2008 -26.32382,-2.9519 -21.86447,-8.4528 -36.67805,-23.3205 -44.79018,-44.9534 -3.83963,-10.23934 -4.90828,-34.38096 -2.02418,-45.72644 4.21065,-16.56354 14.11717,-31.74933 26.72364,-40.96491 l 7.90548,-5.77904 0,-101.13759 0,-101.13758 -34.07621,34.14131 -34.07622,34.14132 -0.22315,18.62372 c -0.20381,17.00909 -0.47743,19.28701 -3.15618,26.27395 -8.36703,21.82389 -23.02481,36.51405 -44.85441,44.95346 -7.11595,2.75107 -8.90746,2.95196 -26.32384,2.95196 -17.41634,0 -19.20786,-0.20089 -26.32379,-2.95196 -21.82961,-8.43941 -36.48739,-23.12957 -44.85444,-44.95346 -2.67874,-6.98694 -2.95236,-9.26486 -3.15616,-26.27395 l -0.22316,-18.62372 -34.07621,-34.14132 -34.07622,-34.14131 0,101.13758 0,101.13759 7.90549,5.77904 c 12.60648,9.21556 22.51297,24.40136 26.7236,40.96491 2.88413,11.34548 1.81546,35.4871 -2.02416,45.72644 -8.12614,21.6703 -23.13311,36.7086 -44.79017,44.8838 -6.64221,2.5072 -9.772234,2.9293 -24.058563,3.2455 -12.150733,0.2688 -18.043493,-0.087 -22.652391,-1.3627 z m 32.353717,-42.9308 c 12.524529,-5.8431 20.889587,-17.91177 20.868317,-30.10749 -0.0296,-16.97988 -15.975286,-33.01114 -32.834896,-33.01114 -4.904622,0 -8.075349,0.82181 -13.339756,3.4575 -25.762432,12.89822 -25.762432,46.00418 0,58.90243 8.82497,4.4183 16.940648,4.6617 25.306335,0.7587 z m 362.438087,0 c 12.52453,-5.8431 20.88959,-17.91177 20.86832,-30.10749 -0.0295,-16.97988 -15.97529,-33.01114 -32.83488,-33.01114 -4.90465,0 -8.07539,0.82181 -13.33978,3.4575 -25.76244,12.89822 -25.76244,46.00418 0,58.90243 8.82496,4.4183 16.94065,4.6617 25.30634,0.7587 z M 267.9658,826.41585 c 12.52451,-5.84318 20.88956,-17.91176 20.8683,-30.10747 -0.0296,-16.97989 -15.97528,-33.01115 -32.8349,-33.01115 -4.90463,0 -8.07535,0.8218 -13.33975,3.45749 -16.45453,8.23813 -23.81353,26.37705 -16.81255,41.44063 8.0921,17.41127 26.64774,25.4384 42.1189,18.2205 z M 86.746743,644.85061 c 12.524529,-5.84319 20.889587,-17.91175 20.868317,-30.10749 -0.0296,-16.97988 -15.975286,-33.01114 -32.834896,-33.01114 -4.904622,0 -8.075349,0.82182 -13.339756,3.45748 -25.762432,12.89823 -25.762432,46.00421 0,58.90245 8.82497,4.41829 16.940648,4.6616 25.306335,0.7587 z m 362.438087,0 c 12.52453,-5.84319 20.88959,-17.91175 20.86832,-30.10749 -0.0295,-16.97988 -15.97529,-33.01114 -32.83488,-33.01114 -16.81345,0 -32.82384,16.0518 -32.82384,32.9087 0,11.94654 7.66626,23.53452 19.48406,29.45123 8.82496,4.41829 16.94065,4.6616 25.30634,0.7587 z"
       id="path4158"
       inkscape:connector-curvature="0" />
  </g>
</svg>
